<?xml version="1.0" encoding="UTF-8" standalone="no"?>
<svg
   xmlns:dc="http://purl.org/dc/elements/1.1/"
   xmlns:cc="http://creativecommons.org/ns#"
   xmlns:rdf="http://www.w3.org/1999/02/22-rdf-syntax-ns#"
   xmlns:svg="http://www.w3.org/2000/svg"
   xmlns="http://www.w3.org/2000/svg"
   xmlns:sodipodi="http://sodipodi.sourceforge.net/DTD/sodipodi-0.dtd"
   xmlns:inkscape="http://www.inkscape.org/namespaces/inkscape"
   width="12.5in"
   height="9.7222204in"
   viewBox="0 0 900 700"
   version="1.1"
   id="svgunicorn"
   sodipodi:docname="unicorn.svg"
   inkscape:version="0.92.2 (5c3e80d, 2017-08-06)"
   inkscape:export-filename="C:\Users\alkhe\OneDrive\Dokumente\Projekte\svg\unicorn.png"
   inkscape:export-xdpi="96"
   inkscape:export-ydpi="96">
  <metadata
     id="metaunicorn">
    <rdf:RDF>
      <cc:Work
         rdf:about="">
        <dc:format>image/svg+xml</dc:format>
        <dc:type
           rdf:resource="http://purl.org/dc/dcmitype/StillImage" />
        <dc:title />
      </cc:Work>
    </rdf:RDF>
  </metadata>
  <defs
     id="defs7" />
  <sodipodi:namedview
     pagecolor="#ffffff"
     bordercolor="#666666"
     borderopacity="1"
     objecttolerance="10"
     gridtolerance="10"
     guidetolerance="10"
     inkscape:pageopacity="0"
     inkscape:pageshadow="2"
     inkscape:window-width="1600"
     inkscape:window-height="847"
     id="unicornview"
     showgrid="false"
     inkscape:zoom="0.50571438"
     inkscape:cx="-9.7040659"
     inkscape:cy="345.14224"
     inkscape:window-x="-8"
     inkscape:window-y="-8"
     inkscape:window-maximized="1"
     inkscape:current-layer="svgunicorn" />
  <g
     id="unicorn"
     transform="translate(-7.4152537,-11.864406)">
    <g
       id="head">
      <g
         id="horn">
        <path
           style="fill:#ff7bf3;fill-opacity:1;stroke:#ff7bf3;stroke-width:1;stroke-opacity:1"
           inkscape:connector-curvature="0"
           id="horn-primary"
           d="m 733,153 c -8.65,-7.87 0.92,-13.44 6,-20 1.29,4.79 -4.23,14.89 -6,20 z m -24.25,14.72 c 0.58,-2.65 3.33,-5.81 5.29,-7.58 1.9,-1.73 2.73,-2.09 4.96,-3.14 0,0 6,15 6,15 0,0 -7,17 -7,17 0,0 -2,0 -2,0 -1.83,-4.25 -8.15,-17.16 -7.25,-21.28 z M 705.31,194 c 0,0 5.75,10 5.75,10 0,0 -4.06,13 -4.06,13 -5.07,-2.4 -13.19,-10.04 -13.6,-16 0,0 1.51,-10 1.51,-10 0.48,-6.56 -1.08,-7.1 3.09,-13 0,0 7.31,16 7.31,16 z M 692,223 c 0,0 -11,-4 -11,-4 0,0 0,-2 0,-2 0,0 4,-3 4,-3 0,0 7,9 7,9 z" />
        <path
           d="m 726,171 c 0,0 -2,0 -2,0 0,0 -3.31,-16 -3.31,-16 0,0 8.31,-10 8.31,-10 6.68,8.45 1.79,12.18 -3,26 z m -11.69,10 c 0,0 3.15,9 3.15,9 0,0 -4.46,12 -4.46,12 -5.67,-4.46 -8.08,-9.53 -10.85,-16 -1.01,-2.36 -2.6,-5.38 -2.09,-8 0.59,-3.01 5.79,-8.45 7.94,-11 0,0 6.31,14 6.31,14 z m -8.27,36.98 c -0.52,7.78 -16.18,6.54 -18.17,-2.98 -0.69,-3.3 4.33,-9.9 6.13,-13 2.75,2.54 12.25,12.7 12.04,15.98 z"
           id="horn-secondary"
           inkscape:connector-curvature="0"
           style="fill:#94c6ff;fill-opacity:1;stroke:#94c6ff;stroke-width:1;stroke-opacity:1" />
      </g>
      <path
         style="fill:#000000;fill-opacity:1;stroke:none;stroke-width:1;stroke-opacity:1"
         inkscape:connector-curvature="0"
         id="eye"
         d="m 666.84568,245.16523 c 23.66,10.67 16.55,46.27 -9,47.89 -18.69,1.19 -31.49,-19.15 -24.03,-35.79 3.84,-8.57 12.15,-13.12 21.03,-14.47 4.19,-0.1 8.16,0.64 12,2.37 z m -12,27.45 c 8.22,-2.6 10.56,-13.34 4.77,-19.12 -3.65,-3.66 -8.04,-3.52 -12.77,-2.8 -15.39,6.08 -6.9,26.63 8,21.92 z m 16.9,3.99 c 4.86,-1.57 6.05,-11.65 -3.67,-9.74 -5.86,4.28 -0.94,11.24 3.67,9.74 z m -12.99,12.34 c 6.88,-1.74 6.57,-14.03 -3.89,-13.23 -9.15,3.81 -4.65,15.4 3.89,13.23 z" />
      <path
         style="fill:#ff7bf3;fill-opacity:1;stroke:#ff7bf3;stroke-width:1;stroke-opacity:1"
         inkscape:connector-curvature="0"
         id="ear"
         d="m 594,185 c 9.51,14.76 5.66,18.26 9,32 0,0 -20,7 -20,7 -2.84,-11.69 -0.88,-32.87 11,-39 z" />
      <path
         d="m 679.79,202 c -1.21,2.6 -2.34,5.89 -4.35,7.91 -12.1,12.14 -34.56,5.21 -49.44,5.15 -4.86,-0.02 -8.6,2.15 -13,3.94 1.85,-6.81 -1.03,-13.57 9,-13.98 11.16,-0.46 12.42,2.91 21,4.75 3.48,0.42 8.37,0.24 12,0 9.94,0.21 18.07,-3.1 23.74,-11.78 2.17,-3.32 2.54,-6.2 3.26,-9.99 1.72,4.48 -0.27,9.81 -2.21,14 z M 618,214 c 0,0 1,1 1,1 0,0 0,-1 0,-1 0,0 -1,0 -1,0 z m -5,6 c -5.95,6.9 -7.83,6.02 -14.33,17 -5.04,8.5 -6.02,20.33 -6.68,30 0,0 0,14 0,14 0,0 -1.15,10.28 -1.15,10.28 0.04,4.12 0.39,10.84 -2.84,13.72 0,0 0,8 0,8 0,0 -7,6 -7,6 8.04,-14.55 6.98,-22.98 7,-39 0.02,-10.27 2.66,-29.38 6.11,-38.96 0,0 9.89,-21.04 9.89,-21.04 0,0 9,0 9,0 z m -57.37,19 c -2.94,8.58 -0.81,21.1 -7.9,27.69 -2.68,2.48 -6.43,2.34 -9.73,3.4 -6.02,1.93 -7.92,3.57 -13,6.91 2.28,-8.4 12.67,-14.49 18.52,-21.97 9.31,-11.88 7.02,-19.43 18.48,-32.03 2.22,6.04 -3.54,7.74 -6.37,16 z m -2.63,2 c 0,0 1,1 1,1 0,0 0,-1 0,-1 0,0 -1,0 -1,0 z m -23.38,79.18 c -3.99,-3.77 -5.81,-6.81 -6.95,-12.18 -1.14,-5.36 0.36,-7.09 1.79,-12.01 3.08,-10.6 7.8,-16.7 19.54,-17.22 2.8,-0.36 5.24,-0.55 8,0 5.68,1.69 13.73,8.35 15.02,14.23 0.35,1.61 0.09,4.28 0,6 -0.19,4.69 -0.09,6.14 -3.02,10 0.11,-4.99 2.39,-7.45 1.94,-13 -0.69,-8.64 -10.94,-14.29 -18.94,-14.16 -11.44,0.18 -22.95,11.45 -21.8,23.16 0.79,8.03 4.66,12.8 11.08,17.2 4.47,3.06 6.92,1.42 8.72,5.8 -5.04,-1.53 -11.54,-4.19 -15.38,-7.82 z M 494,287.63 c 4.17,-1.68 9.5,-2.81 14,-2.54 0,0 10,1.91 10,1.91 0,0 -3,4 -3,4 -0.1,9.25 -5.25,3.38 -16,6.04 -8.06,2 -15.84,8.33 -19.2,15.96 -6.2,14.09 -1.05,32.97 10.52,42.79 11.43,9.7 37.92,14.14 51.68,7.8 6.56,-3.02 14.2,-10.81 18.52,-16.59 4.67,-6.24 4.93,-11.01 13.48,-12 -1,6.38 -2.87,9.56 -6.26,14.96 -15.07,24 -40.53,26.51 -64.91,16.21 -7.43,-3.14 -13.82,-6.36 -19.51,-12.38 -7.91,-8.36 -6.71,-16.62 -9.32,-25.79 0,0 -1,3 -1,3 0,-16.63 3.71,-36.43 21,-43.37 z M 563,310 c -3.81,1.58 -6,2.53 -10,1 0,0 10,-1 10,-1 z m 17,11 c 0,0 -7,4 -7,4 1.83,-3.04 3.33,-4.41 7,-4 z m -8,3 c 0,0 -1,1 -1,1 0,0 0,-1 0,-1 0,0 1,0 1,0 z m -2,2 c 0,0 -24,2 -24,2 0,0 0,-2 0,-2 0,0 24,0 24,0 z"
         id="head-hair1"
         inkscape:connector-curvature="0"
         style="fill:#94c6ff;fill-opacity:1;stroke:#94c6ff;stroke-width:1;stroke-opacity:1" />
      <path
         style="fill:#f7ff6b;fill-opacity:1;stroke:#f7ff6b;stroke-width:1;stroke-opacity:1"
         inkscape:connector-curvature="0"
         id="head-hair2"
         d="m 683.79,187.04 c -0.36,3.65 -2.34,8.01 -4.42,11 -9.78,14.03 -23.08,14.64 -38.38,10.96 -6.8,-1.64 -9.41,-4.48 -17,-4.06 -4.87,0.27 -6.2,1.34 -10,4.1 0,0 -2,-17 -2,-17 10.28,-2.5 21.38,1.44 31,5.04 0,0 7.42,3.07 7.42,3.07 7.78,2.32 16.71,0.55 22.48,-5.21 2.16,-2.17 3.45,-4.2 4.83,-6.9 2.15,-4.2 2.85,-6.33 3.27,-11 2.28,3.2 3.2,6 2.8,10 z M 559.42,305.53 c 4.57,-4.58 0.74,-12.21 -4.47,-14.34 -6.28,-2.58 -14.4,0.73 -18.33,5.89 -7.03,9.26 -3.74,16.9 5.37,23.04 8.6,5.79 25.14,6.7 32.81,-1.19 7.94,-8.14 6.08,-16.74 6.19,-26.89 0,0 0.92,-10 0.92,-10 0,0 0,-14 0,-14 0.06,-9.82 -1.98,-13.5 0,-24 0.6,-3.7 1.01,-10.58 3.22,-13.53 2.63,-3.53 12.5,-6.8 16.86,-7.47 0,0 -7.88,18 -7.88,18 -3.53,9.75 -7.1,29.59 -7.12,40 -0.01,8.3 0.42,28.32 -3.88,34.96 -2.75,4.25 -8.29,8.56 -13.12,10.13 -2.94,0.95 -4.98,0.89 -8,0.91 -11.62,0.06 -24.93,0.88 -31.59,-11.02 -9.71,-17.36 9.62,-39.23 28.55,-27.37 9.42,5.9 9.77,20.8 -2.96,22.37 -3.13,0.39 -4.23,0.5 -7,-0.98 2.99,-1.12 8.3,-2.37 10.43,-4.51 z m 5.57,-74.49 c -1,3.43 -9.79,14.5 -0.98,13.91 1.09,-0.07 1.99,-0.57 2.89,-0.91 0,0 0,25 0,25 0,0 -1.91,7 -1.91,7 0,0 -15,-5 -15,-5 0,0 4.96,-13 4.96,-13 3.48,-14.06 -1.2,-11.71 8.04,-27 0,0 2,0 2,0 z m 4,12 c 0,0 -1,1 -1,1 0,0 0,-1 0,-1 0,0 1,0 1,0 z m -32,123.47 c -5.94,1.37 -14.95,0.24 -21,-0.6 -6.58,-0.91 -12.1,-1.15 -18,-4.71 -11.94,-7.19 -15.75,-14.95 -18.2,-28.16 -2.11,-11.4 2.78,-23.43 12.66,-29.75 4.17,-2.49 20.35,-7.96 21.74,0 0.46,1.15 -0.08,5.16 0,6.75 -13.24,-2.34 -21.12,1.49 -26.12,14.17 -0.93,2.35 -2.75,5.3 -2.57,7.83 0.34,4.8 5.37,6.76 6.49,13 7.56,3.55 19.08,16.35 36,11.51 9.33,-2.67 14.4,-12.73 19.09,-15.91 3.81,-2.59 13.59,-1.83 17.91,-0.6 -3.2,10.96 -16.85,23.91 -28,26.47 z m -11,-35.47 c -7.35,7.7 -19.28,15.36 -28,5 11.62,3.76 16.76,-0.45 22,-11 0,0 6,6 6,6 z" />
      <path
         d="m 618.91,188.23 c 0,0 43,7.72 43,7.72 5.43,0.31 9.63,-2.35 14,-0.91 -3.42,2.47 -6.14,5.86 -10.3,7.04 -12.99,3.68 -24.33,-4.07 -36.7,-7.33 -4.33,-1.14 -13.16,-0.71 -18,-0.71 0.83,-4.81 3.3,-5.41 8,-5.81 z m -38,63.81 c 0,0 0,47 0,47 -0.01,9.02 -1.28,21.84 -11.09,25.47 -2.52,0.94 -3.35,1.18 -5.91,0.53 12.18,-5.99 16.39,-19.85 10.67,-32 -3.72,-7.92 -8.05,-9.76 -8.89,-13.09 0,0 1.21,-10.91 1.21,-10.91 0.18,-4.95 0.91,-21.36 3.1,-24.83 2.22,-3.53 9.36,-8.65 12.91,-11.17 0.97,4.87 -1.98,7.86 -2,19 z m -42.95,46.79 c 4.1,-4.23 13.72,-6.67 18.76,-3.05 5.24,3.76 6.35,11.82 -1.81,14.26 1.68,-2.65 5.44,-7.37 2.26,-10.59 -0.91,-0.61 -1.91,-0.73 -3.05,0 -1.67,0.46 -2.67,2.72 -5.34,4.37 -4.29,2.64 -10.02,2.7 -14.87,2.22 1.09,-2.84 1.88,-4.96 4.05,-7.21 z m -37.05,14.97 c 1.9,-0.71 3.95,-1.5 6,-1.51 2.01,0 5.72,1.26 8,1.75 0,0 4.28,13 4.28,13 0.26,7.02 -8.68,15.81 -18.28,12 4.15,-0.35 9.59,-1.15 12.57,-4.39 2.95,-3.22 1.59,-6.49 -0.72,-7.16 -2.57,-0.76 -5.05,1.95 -8.85,2.98 -4.96,1.35 -10.3,0.29 -15,-1.43 1.36,-7.95 4.26,-12.34 12,-15.24 z m 44,10.24 c 0,0 -7,-5 -7,-5 0,0 7,5 7,5 z m 18,3 c -6.19,0 -11.64,0.63 -17,-3 0,0 17,3 17,3 z m -40,24.78 c 10.01,-3.18 13.08,-9.14 16.17,-10.85 2.56,-1.23 5.13,-0.35 7.83,0 5.16,0.38 11.2,-0.83 16,1.07 0,0 -8,0 -8,0 -2.38,0 -5.6,-0.22 -7.68,1.02 -3.22,1.92 -6.07,8.67 -12.33,12.87 -12.09,8.1 -31.53,3.35 -39.99,-7.89 11.34,4.88 15.43,7.77 28,3.78 z"
         id="head-hair3"
         inkscape:connector-curvature="0"
         style="fill:#ff7bf3;fill-opacity:1;stroke:#ff7bf3;stroke-width:1;stroke-opacity:1" />
    </g>
    <g
       id="tail"
       style="stroke:none;stroke-opacity:1">
      <path
         d="m 225,342 c 18.1,-15.27 34.29,-21.63 58,-21.59 12.98,0.02 24.58,5.52 34.27,14.04 2.91,2.56 8.28,7.3 7.19,11.66 -0.75,3 -7.25,9.68 -10.47,9 -1.62,-0.33 -5.32,-3.21 -6.99,-4.23 0,0 -13,-6.94 -13,-6.94 -15.07,-6.91 -30.13,-7.16 -45,0 -3.32,1.65 -5.98,2.68 -8.96,4.99 -14.95,11.53 -19.05,25.97 -22.12,43.48 -1.38,7.83 -1.91,6.25 -1.92,15 0,0 -1,21 -1,21 -0.02,15.71 0.43,26.06 -8.86,39.72 -8.71,12.79 -27.5,19.15 -41.14,10.8 -5.53,-3.38 -8.35,-6.19 -10,-12.52 4.92,2.35 8.68,4.73 14.34,5.2 17.93,1.48 21.5,-19.74 21.66,-33.2 0.2,-17.77 -2.1,-41.77 5.42,-58 2.96,-6.37 6.48,-17.61 13.58,-20 1.09,-7.14 9.69,-13.93 15,-18.41 z m 21,-1.59 c 0,0 1,1 1,1 0,0 0,-1 0,-1 0,0 -1,0 -1,0 z m -22,3 c 0,0 1,1 1,1 0,0 0,-1 0,-1 0,0 -1,0 -1,0 z m 21,0 c 0,0 1,1 1,1 0,0 0,-1 0,-1 0,0 -1,0 -1,0 z m -11,5 c 0,0 1,1 1,1 0,0 0,-1 0,-1 0,0 -1,0 -1,0 z"
         id="tail-top"
         inkscape:connector-curvature="0"
         style="fill:#ff7bf3;fill-opacity:1;stroke:#ff7bf3;stroke-width:1;stroke-opacity:1" />
      <path
         d="m 262,341.41 c 0,0 -1,1 -1,1 0,0 0,-1 0,-1 0,0 1,0 1,0 z m -97.05,138.45 c 11,7.59 21.77,7.27 33.05,0 17.41,-11.21 21.97,-27.78 22,-47.45 0.04,-27.66 -0.41,-65.99 25.29,-83.34 16.15,-10.9 35.73,-9.28 52.7,-1.66 3.38,1.52 14.73,7.2 14.83,11.09 0.06,2.71 -4.8,7.66 -6.47,9.91 -2.49,3.36 -5.72,11.33 -9.44,12.65 -2.83,1 -8.76,-2.08 -11.91,-2.89 -5.86,-1.5 -13.41,-0.96 -19,1.33 -15.5,6.37 -14.84,22.97 -15,36.91 0,0 -1,14 -1,14 -0.07,13.86 -3.16,22.37 -8.25,35 -2.27,5.61 -4.52,12.96 -10.75,15 0,0 -4,9 -4,9 -4.26,0.59 -4.7,3.57 -8.1,6.09 -2.87,2.11 -11.34,5.3 -14.9,6.28 -15.19,4.16 -40.39,-2.86 -48.24,-17.37 -3.06,-5.67 -2.76,-11.8 -2.76,-18 0,0 2,0 2,0 1.27,5.96 5.02,10.03 9.95,13.45 z M 306,365.41 c 0,0 1,1 1,1 0,0 0,-1 0,-1 0,0 -1,0 -1,0 z m -48,15 c 0,0 1,1 1,1 0,0 0,-1 0,-1 0,0 -1,0 -1,0 z m -14,6 c 0,0 1,1 1,1 0,0 0,-1 0,-1 0,0 -1,0 -1,0 z m -8,80 c 0,0 1,1 1,1 0,0 0,-1 0,-1 0,0 -1,0 -1,0 z"
         id="tail-middle"
         inkscape:connector-curvature="0"
         style="fill:#f7ff6b;fill-opacity:1;stroke:#f7ff6b;stroke-width:1;stroke-opacity:1" />
      <path
         d="m 275.37,382.81 c 3.08,-0.54 5.91,-0.22 9,0 3.97,0.19 10.79,1.11 13.53,4.28 0.97,1.12 1.42,2.21 1.41,3.7 -0.03,2.04 -6.02,15.15 -7.5,16.59 -1.41,1.4 -1.83,1.08 -3.44,1.41 0,0 -9.37,9.21 -9.37,9.21 0,0 -4.65,8.49 -4.65,8.49 0,0 -1.98,6.3 -1.98,6.3 -2.21,2.99 -3.94,11.87 -4.77,15.92 0,0 -6.49,33.08 -6.49,33.08 -1.45,6.19 -2.21,14.02 -7.74,18 -1.08,6.5 -9.19,15.68 -16,16 -0.88,3.44 -3.9,4.32 -7,5.8 -10.5,5 -10.36,4.23 -21,5.37 0,0 -8,1.49 -8,1.49 0,0 -16,-2.15 -16,-2.15 -2.92,-0.77 -14.4,-6.12 -16.7,-7.97 -10.1,-8.06 -17.56,-23.65 -13.3,-36.54 1.11,2.36 2.51,5.79 3.97,7.83 5.25,7.37 14.47,12.99 23.03,15.58 17.72,5.36 31.24,2.44 46,-8.66 11.2,-8.42 20.63,-26.43 24.78,-39.75 2.32,-7.45 4.21,-19.19 4.22,-27 0.01,-7.88 -0.8,-23.17 2,-30 0,0 1,2 1,2 -1.08,-9.7 5.6,-17.18 15,-18.98 z m -1,4.98 c 0,0 1,1 1,1 0,0 0,-1 0,-1 0,0 -1,0 -1,0 z m -14,52 c 0,0 1,1 1,1 0,0 0,-1 0,-1 0,0 -1,0 -1,0 z m -83,67 c 0,0 5,-1 5,-1 0,0 -5,1 -5,1 z m 58,8 c 0,0 1,1 1,1 0,0 0,-1 0,-1 0,0 -1,0 -1,0 z"
         id="tail-bottom"
         inkscape:connector-curvature="0"
         style="fill:#94c6ff;fill-opacity:1;stroke:#94c6ff;stroke-width:1;stroke-opacity:1" />
    </g>
    <path
       id="body"
       d="m 684.64,169 c 1.7,2.12 4.33,7.46 7.65,6.04 2.64,-1.13 10.3,-10.38 12.8,-13.05 0,0 17.74,-18.99 17.74,-18.99 0,0 12.17,-13.71 12.17,-13.71 0,0 12.51,-12.36 12.51,-12.36 1.8,-0.84 2.77,-0.32 4.49,0 0,0 -15.13,38.07 -15.13,38.07 0,0 -16.14,40 -16.14,40 0,0 -8.82,22 -8.82,22 -1.1,2.66 -3.75,6.15 -2.96,9.03 1.06,3.88 6.68,5.25 10.05,6.55 5.23,2.01 20.46,9.36 23.23,13.74 1.01,1.58 0.58,1.75 0.77,2.68 6.07,1.78 8.87,5.72 11.98,11 7.69,13.06 7.01,27.86 3.39,42 -1.31,5.11 -3.82,16.63 -9.37,18 -1.02,7.32 -6.29,11.66 -11.72,16.24 -13.43,11.34 -34.95,16.73 -52.28,16.76 0,0 -12,0 -12,0 -2.03,-0.02 -6.07,-0.59 -7.57,0.89 -1.73,1.71 -1.43,5.82 -1.43,8.11 0,0 0,9 0,9 -0.15,12.75 -6.64,47.27 -10.29,60 -1.42,4.95 -3.65,16.21 -7.71,19 0.33,2.62 -0.32,5.81 1.1,7.81 1.68,2.4 6.21,3.7 8.9,4.97 7.94,3.74 16.61,9.31 16.54,19.22 -0.08,12.9 -7.73,34.18 -16.01,43.98 -4.94,5.86 -7.74,5.04 -9.93,7.53 -2.86,3.24 0.27,5.39 -5.98,14.49 -10.07,14.66 -23.52,20.4 -40.62,21.68 -11.25,0.84 -19.65,-4.82 -24.62,-14.68 -3.29,-6.51 -3.41,-15.11 -8.56,-14.6 0,0 -21.82,8.91 -21.82,8.91 -17.57,6.28 -33.41,11.55 -52,14.42 -17.3,2.66 -32.6,3.08 -50,0.99 0,0 -20,-3 -20,-3 -6.96,-1.43 -13.86,-3.39 -21,-3.72 0,6.43 1.85,15.28 -1.31,20.96 -2.72,4.89 -8.49,6.76 -13.69,7.6 -10.43,1.68 -26.55,-0.68 -37,-2.76 0,0 -9,-1.63 -9,-1.63 -5.17,-0.52 -5.96,0.13 -12,-1.18 -2.96,-0.65 -6.05,-0.88 -7,-3.99 -5.98,0.82 -9.29,-1.73 -14,-5.16 -8.01,-5.83 -14.82,-12.4 -15.82,-22.84 -0.91,-9.36 6.32,-19.22 12.12,-26 2.19,-2.55 8.39,-7.88 8.54,-11 0.12,-2.39 -3.43,-6.88 -4.79,-9 -4.01,-6.3 -8.17,-14.1 -11.04,-21 -8.62,-20.73 -12.3,-43.69 -9.01,-66 0,0 -5,-1 -5,-1 -0.9,4.87 -3.37,6 -5.79,10 -2.25,3.72 -4.73,10.72 -5.83,15 -7.57,29.4 -4.33,61.95 -33.38,81.16 -28.38,18.77 -81.6,19.43 -94.25,-19.16 -1.52,-4.62 -2.18,-10.14 -2.01,-15 0.42,-11.27 0.37,-12.94 3.55,-24 0.65,-2.24 1.62,-7.54 4.13,-8.29 2.16,-0.63 4.93,1.52 6.58,2.68 3.91,2.77 7.2,5.74 12,7 16,4.21 16.98,-20.13 17,-30.39 0.02,-12.2 -0.9,-29.5 1.26,-41 0.84,-4.48 2.02,-11.15 5.74,-14 -0.47,-9.57 12.48,-25.4 19,-32 7.2,-7.28 13.41,-13.37 22,-19.11 17.43,-11.65 44.53,-17.82 65,-12.15 9.6,2.67 17.46,7.03 25,13.56 7.37,6.38 5.78,9.26 15,12.7 4.1,-6.95 13.06,-10.96 20,-14.69 21.69,-11.66 46.72,-15.96 71,-11.7 8.68,1.53 16.61,3.59 25,6.28 3.02,0.97 7.76,3.44 10.88,2.37 3.81,-1.31 3.88,-5.94 4.39,-9.26 1.11,-7.08 3.13,-14.1 7.36,-20 5.8,-8.08 17.45,-14.19 27.37,-14.96 0,0 15,0 15,0 0.74,-13.38 11.77,-17.48 19.53,-27.04 6.74,-8.3 6.97,-14.25 11.78,-23 2.68,-4.86 5.99,-9.92 11.69,-11 0,0 3.78,-8 3.78,-8 0,0 1.66,-12 1.66,-12 1.59,-10.12 4.71,-23.01 9.59,-32 2.31,-4.26 8.15,-14 13.96,-12.35 3.99,1.14 9.97,9.69 11.88,13.35 0,0 5.13,13 5.13,13 2.52,-1.01 3.52,-1.37 5.54,-3.34 5.24,-5.11 17.14,-24.83 24.82,-11.64 0,0 3.31,6.98 3.31,6.98 1.67,4.01 2.01,5.72 1.33,10 7.82,1.1 31.12,8.77 30.69,-6 -0.2,-6.8 -5.88,-12.82 -6.69,-20 7.26,0.84 13.21,6.48 17.64,12 z M 735,133 c 0,0 1,1 1,1 0,0 0,-1 0,-1 0,0 -1,0 -1,0 z m 1,2 c 0,0 1,1 1,1 0,0 0,-1 0,-1 0,0 -1,0 -1,0 z m -9,13 c 0,0 -1,1 -1,1 -5.36,1.15 -8.22,6.72 -11.71,10.55 0,0 -6.29,5.45 -6.29,5.45 0,0 -3,6 -3,6 -3.53,0.84 -5.94,4.17 -8.03,7.01 -1.64,2.25 -3.77,4.29 -4.54,7.03 -0.7,2.48 -0.21,12.61 -3.03,19.96 -1.89,4.94 -6.68,9.62 -7.4,14 -3.63,0.89 -3.41,2.65 -4,6 0,0 4,2 4,2 5.57,-0.2 11.31,3.71 15.96,2.17 3.73,-1.22 5.23,-4.8 6.44,-8.17 0,0 4.11,-11 4.11,-11 2.93,-6.51 7.15,-10.4 6.49,-18 0,0 1,-2 1,-2 0,0 2,0 2,0 0,0 8.24,-21 8.24,-21 0,0 6.76,-16 6.76,-16 0,0 5,-17 5,-17 -4.75,2.48 -10,6.5 -11,12 z m -127.75,24 c -1.65,-3.62 -5.69,-11.08 -10.25,-10.88 -1.6,0.07 -3.57,1.2 -5,1.88 0,0 -6.64,16 -6.64,16 -2.93,8.9 -6.35,27.68 -6.36,37 -0.01,5.44 -1.04,8.9 3,13 12.59,-9.31 16.55,-12.17 32,-15 -0.01,-11.42 -2.06,-31.72 -6.75,-42 z M 673,163 c 0,0 1,1 1,1 0,0 0,-1 0,-1 0,0 -1,0 -1,0 z m 34,0 c 0,0 1,1 1,1 0,0 0,-1 0,-1 0,0 -1,0 -1,0 z m 0,3 c 0,0 1,1 1,1 0,0 0,-1 0,-1 0,0 -1,0 -1,0 z m -77.01,2.4 c -5.85,1.93 -7.2,7.32 -5.99,12.6 4.87,-2.57 6.85,-1.03 12,0 3.04,-7.35 -1.39,-14.13 -6.01,-12.6 z M 623,171 c 0,0 1,1 1,1 0,0 0,-1 0,-1 0,0 -1,0 -1,0 z m 61,0 c 0,0 1,1 1,1 0,0 0,-1 0,-1 0,0 -1,0 -1,0 z m -4,3 c -1.56,4.73 -2.2,12.24 -6.26,15.6 -5.96,4.44 -19.99,1.57 -26.74,0 -3.06,-0.42 -7.81,-0.36 -9,-3.6 -10.44,1.38 -14.88,-3.92 -28,1 0.87,12.65 -1.51,18.85 3,32 0,0 -8,1 -8,1 0,0 -2,-3 -2,-3 0,0 0,4 0,4 0,0 -16.68,5.26 -16.68,5.26 0,0 -8.32,4.74 -8.32,4.74 0,0 1,2 1,2 0,0 -1,1 -1,1 0,0 -2,-1 -2,-1 0,0 0,2 0,2 0,0 -4,0 -4,0 0,0 1,3 1,3 0,0 -12,6 -12,6 1.1,-6.53 3.62,-5.49 5.06,-10.01 1.08,-3.4 -0.75,-8.81 -2.06,-11.99 -13.18,9.8 -12.7,26.46 -24.45,38.49 -5.97,6.1 -16.81,11.56 -15.55,21.51 4.74,-2.44 9.03,-6.26 14,-8.03 5.57,-1.99 14.78,-0.74 20.17,1.56 0,0 10.83,5.47 10.83,5.47 0,0 -1,2 -1,2 7.95,5.9 11.68,21.14 5,29 -1.29,7.19 -10.29,10.92 -17,10.37 -6.38,-0.52 -16.29,-5.74 -19.62,-11.3 -1.31,-2.19 -1.73,-4.65 -2.38,-7.07 4.05,-0.67 16.05,-2.1 18.29,-5.3 1.08,-1.54 0.69,-2.15 0.71,-3.7 0,0 6,1 6,1 0,0 -1,7 -1,7 -6.78,3.33 -5.39,4.78 -14,5 0,0 7,8 7,8 0,0 3,-1 3,-1 0,0 -1,2 -1,2 6.31,-1.13 10.78,-0.56 14.75,-6.58 4.56,-6.92 2.58,-23.5 -6.75,-25.42 -1.29,-4.57 -8.66,-6.61 -13,-6.91 -2.49,-0.17 -5.08,-0.66 -6,1.91 -7.95,-1.01 -10.99,4.7 -17,9 0,0 -1,11 -1,11 0,0 -4,2 -4,2 0,0 3,1 3,1 -2.46,10.1 0.57,16.14 8.71,22.28 4.83,3.64 5.26,4.28 11.29,5.52 13.58,2.79 33.79,0.89 43.66,-9.97 1.97,-2.16 2.99,-4.3 4.34,-6.83 0,0 0,2 0,2 0,0 1,0 1,0 0,0 1.71,-16 1.71,-16 0,0 1.25,-22 1.25,-22 0,0 1.63,-25 1.63,-25 0,0 5.02,-13.71 5.02,-13.71 0,0 5.39,-9.29 5.39,-9.29 6.14,-2.97 11.45,-10.38 16.01,-11.21 2.5,-0.45 9.03,0.77 11.9,0.98 14.23,1.07 33.66,4.82 44.05,-7.86 8,-9.77 5.1,-19.8 8.04,-30.91 0,0 -7,-7 -7,-7 z m 14,1 c 0,0 1,1 1,1 0,0 0,-1 0,-1 0,0 -1,0 -1,0 z m -9,3 c 0,0 1,1 1,1 0,0 0,-1 0,-1 0,0 -1,0 -1,0 z m -67,1 c 0,0 1,1 1,1 0,0 0,-1 0,-1 0,0 -1,0 -1,0 z m -1,1 c 0,0 1,1 1,1 0,0 0,-1 0,-1 0,0 -1,0 -1,0 z m 69,25 c 0,0 1,1 1,1 0,0 0,-1 0,-1 0,0 -1,0 -1,0 z m -79,11 c 0,0 1,1 1,1 0,0 0,-1 0,-1 0,0 -1,0 -1,0 z m 71,0 c 0,0 1,1 1,1 0,0 0,-1 0,-1 0,0 -1,0 -1,0 z m -69,1 c 0,0 1,1 1,1 0,0 0,-1 0,-1 0,0 -1,0 -1,0 z m -14,1 c 0,0 1,1 1,1 0,0 0,-1 0,-1 0,0 -1,0 -1,0 z m 75,4 c 0,0 1,1 1,1 0,0 0,-1 0,-1 0,0 -1,0 -1,0 z m -22,121.48 c 6.79,2.24 13.92,2.94 21,3.59 20.65,1.92 43.86,0.39 61.58,-11.74 16.3,-11.16 24.97,-31.98 25.41,-51.33 0.55,-24.65 -18.95,-39.18 -39.99,-47.05 0,0 -9,-3.29 -9,-3.29 -5.36,-1.13 -8.35,1.23 -16,0 -12.11,-2.27 -13.56,-6.18 -21,-7.75 0,0 -25,0 -25,0 -5.38,0.02 -17.94,-2.71 -21.96,-1.18 -2.6,1 -5.91,4.4 -8.04,6.35 -11.7,10.71 -12.99,18.95 -14.09,33.92 0,0 -0.91,18 -0.91,18 -0.04,7.52 -2.03,27.6 -5.19,34 -3,6.09 -7.21,7.79 -9.27,13 0,0 -4.41,14 -4.41,14 -6.42,14.97 -15.14,25.68 -30.13,32.68 -22.51,10.5 -60.12,0.04 -74.51,-19.68 -2.77,-3.8 -5.47,-11.36 -6.59,-16 -1.24,-5.12 -0.28,-8.14 -5.75,-10.79 0,0 -18.15,-5.5 -18.15,-5.5 -20.46,-5.82 -42.22,-7.57 -63,-2.23 -36.91,9.49 -73.93,43.59 -86.46,79.52 -4.12,11.81 -4.68,22.68 -4.54,35 0.12,10.3 3.3,25.25 6.69,35 1.87,5.34 7.18,15.09 7.31,20 6.21,5.28 7.98,15.57 16,18 -1.85,6.29 -4.52,6.9 -8.91,11.17 -4.97,4.82 -14.26,16.04 -15.7,22.83 -3.43,16.14 18.46,28.99 31.61,31.79 5.25,1.12 9.99,2.09 15,-0.56 7.2,-3.79 14.92,-14.17 18.87,-21.28 1.37,-2.47 4.77,-10.25 7.47,-10.62 1.61,-0.21 6.3,1.67 8.24,2.19 0,0 21.42,6.25 21.42,6.25 19.28,4.62 45.26,8.98 65,9.22 20.15,0.25 49.17,-5.66 68,-12.8 0,0 24,-9.56 24,-9.56 2.56,-1.18 11.7,-5.62 13.95,-5.68 5.32,-0.15 6.26,12.17 7.67,16.33 3.64,10.79 9.35,14.59 20.38,14.72 7.46,0.08 10.89,0.18 18,-2.76 3.44,-1.42 8.9,-4.96 11.83,-7.28 4.14,-3.27 9.63,-9.73 10.78,-14.96 1.86,-8.47 -7.49,-26.65 -11.95,-34 -1.54,-2.53 -8.4,-12.94 -8.62,-14.96 -0.34,-3.1 8.7,-9.69 11.27,-12.87 3.41,-4.23 10.08,-21.35 12.02,-27.17 1.77,-5.31 2.52,-10.06 6.67,-14 -1.33,-6.79 1.92,-13.3 3.08,-20 2.81,-16.25 6.89,-32.38 6.92,-49 0.01,-4.18 0.99,-12.52 -2.31,-15.42 -1.73,-1.51 -5.43,-2.2 -7.69,-2.94 -6.15,-2.02 -18.47,-7.38 -21.43,-13.3 -0.76,-1.53 -0.57,-2.74 -0.57,-4.34 9.67,5.59 8.02,8.21 21,12.48 z M 706,225 c 0,0 1,1 1,1 0,0 0,-1 0,-1 0,0 -1,0 -1,0 z m -5,3 c 0,0 1,1 1,1 0,0 0,-1 0,-1 0,0 -1,0 -1,0 z m -131,1 c 0,0 1,1 1,1 0,0 0,-1 0,-1 0,0 -1,0 -1,0 z m -1,1 c 0,0 1,1 1,1 0,0 0,-1 0,-1 0,0 -1,0 -1,0 z m 40,3 c 0,0 1,1 1,1 0,0 0,-1 0,-1 0,0 -1,0 -1,0 z m -6,10 c 0,0 1,1 1,1 0,0 0,-1 0,-1 0,0 -1,0 -1,0 z m -60,7 c 0,0 1,1 1,1 0,0 0,-1 0,-1 0,0 -1,0 -1,0 z m 1,2 c 0,0 1,1 1,1 0,0 0,-1 0,-1 0,0 -1,0 -1,0 z m -3,3 c 0,0 1,1 1,1 0,0 0,-1 0,-1 0,0 -1,0 -1,0 z m -2,1 c 0,0 1,1 1,1 0,0 0,-1 0,-1 0,0 -1,0 -1,0 z m 1,1 c 0,0 1,1 1,1 0,0 0,-1 0,-1 0,0 -1,0 -1,0 z m -6,2 c 0,0 1,1 1,1 0,0 0,-1 0,-1 0,0 -1,0 -1,0 z m -5,6 c 0,0 1,1 1,1 0,0 0,-1 0,-1 0,0 -1,0 -1,0 z m 1,1 c 0,0 1,1 1,1 0,0 0,-1 0,-1 0,0 -1,0 -1,0 z m -10,11 c 0,0 1,1 1,1 0,0 0,-1 0,-1 0,0 -1,0 -1,0 z m 36,2 c 0,0 1,1 1,1 0,0 0,-1 0,-1 0,0 -1,0 -1,0 z m -28,5 c 0,0 1,1 1,1 0,0 0,-1 0,-1 0,0 -1,0 -1,0 z m -42.95,9.38 c -7.31,6.3 -10.61,18.31 -11.08,27.62 -0.64,12.4 -1.41,16.36 4.25,28 4.08,8.39 6.12,10.58 13.95,15.94 14.39,9.84 41.62,13.49 57.87,6.78 5.72,-2.36 9.85,-8.22 15.96,-9.72 0,0 7,-17 7,-17 0,0 5,-4 5,-4 -0.38,-2.33 -0.49,-5.26 -3.23,-6.06 0,0 -14.77,2.06 -14.77,2.06 0,0 -15.99,-0.65 -15.99,-0.65 0,0 -7.01,0.65 -7.01,0.65 -0.64,2.16 -0.73,3 -2.31,4.81 -4.41,5.04 -24.58,13.76 -33.69,4.19 -4.84,-0.27 -9.58,-5.19 -10,-10 -3.17,-1.94 -4.75,-5.8 -0.52,-7.42 2.65,-1.01 9.74,0.72 12.52,1.42 1.7,-3.85 9.3,-4.54 13,-4 -5.03,10.14 -10.42,8.28 -20,9 0,0 0,3 0,3 8.59,5.1 11.46,5.08 21,7 0,0 -1,-2 -1,-2 4.01,0.32 15.21,-3.16 15.43,-8.16 0.22,-5.14 -9.39,-8.68 -13.49,-16.84 -4.19,-8.37 0.12,-22.64 3.06,-31 -14.04,-1.86 -23.81,-4.09 -35.95,6.38 z M 484,289 c 0,0 1,1 1,1 0,0 0,-1 0,-1 0,0 -1,0 -1,0 z m -5,4 c 0,0 1,1 1,1 0,0 0,-1 0,-1 0,0 -1,0 -1,0 z m 76,6 c 0,0 1,1 1,1 0,0 0,-1 0,-1 0,0 -1,0 -1,0 z m 1,1 c 0,0 1,1 1,1 0,0 0,-1 0,-1 0,0 -1,0 -1,0 z m -16,5 c 0,0 1,1 1,1 0,0 0,-1 0,-1 0,0 -1,0 -1,0 z m 2,10 c 0,0 1,1 1,1 0,0 0,-1 0,-1 0,0 -1,0 -1,0 z m 22,1 c 0,0 1,1 1,1 0,0 0,-1 0,-1 0,0 -1,0 -1,0 z m 28,0 c 0,0 1,1 1,1 0,0 0,-1 0,-1 0,0 -1,0 -1,0 z m -25,1 c 0,0 1,1 1,1 0,0 0,-1 0,-1 0,0 -1,0 -1,0 z m -260.28,8.27 c -2.92,-1.42 -10.61,-4.44 -13.76,-5.28 -4.39,-0.58 -5.85,-0.01 -9.96,0 0,0 -8,0 -8,0 -8.53,0.29 -21.34,3.99 -29,7.77 -5.82,2.86 -12.38,5.63 -16,11.24 0,0 -2.71,0.76 -2.71,0.76 0,0 -9.89,8.31 -9.89,8.31 0,0 -1.4,3.93 -1.4,3.93 0,0 -3,0 -3,0 0,0 -10,13 -10,13 0,0 -3,5 -3,5 0,0 -5,16 -5,16 -3.41,3.04 -3.99,18.11 -4,23 -0.02,13.48 1.56,39.33 -4.26,50.91 -7.43,14.78 -24.45,14.58 -32.74,1.09 -5.61,4.74 -4.2,7.48 -5.87,14 -1.73,6.84 -1.53,14.12 0,21 0.58,2.68 0.96,5.45 2,8 4.92,12.12 18.66,20.18 30.87,23.1 4.21,1.01 5.05,0.7 9,0.99 12.11,0.88 13.9,0.68 26,-2.44 5.48,-1.41 9.14,-4.47 15,-4.65 0,0 15.47,-14.42 15.47,-14.42 2.95,-3.33 7.43,-12.3 8.99,-16.58 6.72,-18.47 7.12,-45.75 12.95,-59.42 4.31,-10.12 10.4,-19.29 21.59,-22.58 0.52,-5.11 3.79,-16.23 8,-19 0.4,-5.26 2.79,-7.72 5.67,-12 0,0 15.52,-20.96 15.52,-20.96 4.9,-5.59 7.42,-5.17 8.81,-13.04 -5.31,-4.11 -10.2,-12.32 -21.28,-17.73 z M 299,319 c 0,0 1,1 1,1 0,0 0,-1 0,-1 0,0 -1,0 -1,0 z m 291,1 c 0,0 1,1 1,1 0,0 0,-1 0,-1 0,0 -1,0 -1,0 z m -212,2 c 0,0 1,1 1,1 0,0 0,-1 0,-1 0,0 -1,0 -1,0 z m 147,2 c 0,0 1,1 1,1 0,0 0,-1 0,-1 0,0 -1,0 -1,0 z m -207,3 c 0,0 1,1 1,1 0,0 0,-1 0,-1 0,0 -1,0 -1,0 z m 195,0 c 0,0 1,1 1,1 0,0 0,-1 0,-1 0,0 -1,0 -1,0 z m 65,1 c 0,0 1,1 1,1 0,0 0,-1 0,-1 0,0 -1,0 -1,0 z m -263,2 c 0,0 1,1 1,1 0,0 0,-1 0,-1 0,0 -1,0 -1,0 z m 220,0 c 0,0 1,1 1,1 0,0 0,-1 0,-1 0,0 -1,0 -1,0 z m -28,1 c 0,0 1,1 1,1 0,0 0,-1 0,-1 0,0 -1,0 -1,0 z m 35,3 c 0,0 1,1 1,1 0,0 0,-1 0,-1 0,0 -1,0 -1,0 z m -8,2 c 0,0 1,1 1,1 0,0 0,-1 0,-1 0,0 -1,0 -1,0 z m -305,1 c 0,0 1,1 1,1 0,0 0,-1 0,-1 0,0 -1,0 -1,0 z m 114,0 c 0,0 1,1 1,1 0,0 0,-1 0,-1 0,0 -1,0 -1,0 z m 385,3 c 0,0 1,1 1,1 0,0 0,-1 0,-1 0,0 -1,0 -1,0 z m -504,1 c 0,0 1,1 1,1 0,0 0,-1 0,-1 0,0 -1,0 -1,0 z m 247,0 c 0,0 1,1 1,1 0,0 0,-1 0,-1 0,0 -1,0 -1,0 z m -249,2 c 0,0 1,1 1,1 0,0 0,-1 0,-1 0,0 -1,0 -1,0 z m 250,0 c 0,0 1,1 1,1 0,0 0,-1 0,-1 0,0 -1,0 -1,0 z m 26,2 c 0,0 1,1 1,1 0,0 0,-1 0,-1 0,0 -1,0 -1,0 z m 167,5 c 0,0 1,1 1,1 0,0 0,-1 0,-1 0,0 -1,0 -1,0 z m -2,1 c 0,0 1,1 1,1 0,0 0,-1 0,-1 0,0 -1,0 -1,0 z m -338,1 c 0,0 1,1 1,1 0,0 0,-1 0,-1 0,0 -1,0 -1,0 z m -113,1 c 0,0 1,1 1,1 0,0 0,-1 0,-1 0,0 -1,0 -1,0 z m 114,1 c 0,0 1,1 1,1 0,0 0,-1 0,-1 0,0 -1,0 -1,0 z m 161,9 c 0,0 1,1 1,1 0,0 0,-1 0,-1 0,0 -1,0 -1,0 z m 1,1 c 0,0 1,1 1,1 0,0 0,-1 0,-1 0,0 -1,0 -1,0 z m 70,2 c 0,0 1,1 1,1 0,0 0,-1 0,-1 0,0 -1,0 -1,0 z m 4,2 c 0,0 1,1 1,1 0,0 0,-1 0,-1 0,0 -1,0 -1,0 z m -5,1 c 0,0 1,1 1,1 0,0 0,-1 0,-1 0,0 -1,0 -1,0 z m -252,10 c 0,0 1,1 1,1 0,0 0,-1 0,-1 0,0 -1,0 -1,0 z m -26,39 c 0,0 1,1 1,1 0,0 0,-1 0,-1 0,0 -1,0 -1,0 z m -131,38 c 0,0 1,1 1,1 0,0 0,-1 0,-1 0,0 -1,0 -1,0 z m 497,2 c 0,0 1,1 1,1 0,0 0,-1 0,-1 0,0 -1,0 -1,0 z m -493,1 c 0,0 1,1 1,1 0,0 0,-1 0,-1 0,0 -1,0 -1,0 z m 476.06,38 c 0,0 11.46,21 11.46,21 1.25,2.75 2.46,7.14 5.61,8.21 6,2.02 11.25,-7.97 13.37,-12.21 4.02,-8.04 11.54,-27.4 7.85,-36 -2.14,-4.99 -5.73,-7.41 -10.35,-9.75 -3.16,-1.61 -9.22,-4.92 -12.75,-3.47 -3.51,1.44 -3.96,7.72 -10.25,13.22 -1.16,8.95 -11.71,7.58 -4.94,19 z M 665,474 c 0,0 1,1 1,1 0,0 0,-1 0,-1 0,0 -1,0 -1,0 z m 3,1 c 0,0 1,1 1,1 0,0 0,-1 0,-1 0,0 -1,0 -1,0 z m -45,10 c 0,0 1,1 1,1 0,0 0,-1 0,-1 0,0 -1,0 -1,0 z m -392,36 c 0,0 1,1 1,1 0,0 0,-1 0,-1 0,0 -1,0 -1,0 z m -53,8 c 0,0 1,1 1,1 0,0 0,-1 0,-1 0,0 -1,0 -1,0 z m 191,14 c 0,0 1,1 1,1 0,0 0,-1 0,-1 0,0 -1,0 -1,0 z m -15.41,35.26 c 2.22,2.11 12.09,2.83 15.41,3.35 5.27,0.23 9.67,0.62 15,0 4.1,-0.06 9.06,-1 11.79,-4.4 3.69,-4.6 1.01,-18.09 -0.95,-20.73 -1.63,-2.2 -8.99,-3.88 -11.84,-4.57 -4.84,-1.81 -10.28,-4.51 -14.05,0 -3.14,4.19 -8.53,16.36 -16.95,23.09 0.45,1.35 0.42,2.15 1.59,3.26 z M 530,551 c 0,0 1,1 1,1 0,0 0,-1 0,-1 0,0 -1,0 -1,0 z m -166,1 c 0,0 1,1 1,1 0,0 0,-1 0,-1 0,0 -1,0 -1,0 z m 268,1 c 0,0 1,1 1,1 0,0 0,-1 0,-1 0,0 -1,0 -1,0 z"
       style="fill:#6e009c;fill-opacity:1;stroke:#6e009c;stroke-width:1;stroke-opacity:1"
       inkscape:connector-curvature="0" />
  </g>
</svg>
